<svg width="68" height="68" viewBox="0 0 68 68" fill="none" xmlns="http://www.w3.org/2000/svg">
<g id="Paypass">
<g id="Vector">
<path d="M9.13757 26.1375C9.98757 27.2 10.6251 28.475 11.0501 29.75C11.4751 31.025 11.6876 32.5125 11.6876 34C11.6876 35.4875 11.4751 36.975 11.0501 38.25C10.6251 39.525 9.98757 40.8 9.13757 41.8625C8.07507 43.35 8.28757 45.475 9.77507 46.5375C11.2626 47.6 13.3876 47.3875 14.4501 45.9C15.7251 44.2 16.5751 42.5 17.4251 40.375C18.2751 38.25 18.4876 36.125 18.4876 34C18.4876 31.875 18.0626 29.75 17.4251 27.625C16.7876 25.7125 15.7251 23.8 14.4501 22.1C13.3876 20.6125 11.2626 20.4 9.77507 21.4625C8.28757 22.525 8.07507 24.65 9.13757 26.1375Z" fill="white" fill-opacity="0.4"/>
<path d="M20.8251 19.975C23.3751 24.0125 24.8626 28.9 24.8626 34C24.8626 39.1 23.3751 43.9875 20.8251 48.025C19.7626 49.5125 20.4001 51.6375 21.8876 52.7C23.5876 53.7625 25.5001 53.125 26.5626 51.6375C29.7501 46.5375 31.6626 40.5875 31.6626 34C31.6626 27.625 29.7501 21.4625 26.5626 16.3625C25.5001 14.875 23.3751 14.2375 21.8876 15.3C20.4001 16.3625 19.7626 18.275 20.8251 19.975Z" fill="white" fill-opacity="0.4"/>
<path d="M33.15 13.6C36.7625 19.55 38.675 26.5625 38.675 34C38.675 41.4375 36.55 48.45 33.15 54.4C32.3 56.1 32.725 58.0125 34.425 59.075C36.125 59.925 38.0375 59.5 39.1 57.8C43.35 50.7875 45.6875 42.7125 45.6875 34C45.6875 25.2875 43.35 17.2125 39.1 10.2C38.25 8.5 36.125 8.075 34.425 8.925C32.725 9.9875 32.3 11.9 33.15 13.6Z" fill="white" fill-opacity="0.4"/>
<path d="M45.475 7.225C49.9375 15.0875 52.7 24.225 52.7 34C52.7 43.775 50.15 52.9125 45.475 60.775C44.625 62.475 45.05 64.3875 46.75 65.45C48.45 66.3 50.3625 65.875 51.425 64.175C56.525 55.25 59.5 45.05 59.5 34C59.5 22.95 56.525 12.75 51.425 3.825C50.575 2.125 48.45 1.7 46.75 2.55C45.05 3.4 44.625 5.525 45.475 7.225Z" fill="white" fill-opacity="0.4"/>
</g>
</g>
</svg>
