<svg version="1.0" xmlns="http://www.w3.org/2000/svg" xmlns:xlink="http://www.w3.org/1999/xlink"
	 viewBox="0 0 93.7 121.7" enable-background="new 0 0 93.7 121.7" xml:space="preserve">
	<style type="text/css">
		.frame-color { fill: #02bfff; }
	</style>
	
<svg xmlns="http://www.w3.org/2000/svg" xmlns:xlink="http://www.w3.org/1999/xlink" version="1.1" width="86" height="86" viewBox="0 0 2000 2000" x="4" y="4" shape-rendering="crispEdges"><defs/><rect x="0" y="0" width="2000" height="2000" fill="#ffffff"/><rect x="889" y="223" width="74" height="74" fill="#000000"/><rect x="1037" y="223" width="74" height="74" fill="#000000"/><rect x="1111" y="223" width="74" height="74" fill="#000000"/><rect x="889" y="297" width="74" height="74" fill="#000000"/><rect x="963" y="297" width="74" height="74" fill="#000000"/><rect x="1037" y="297" width="74" height="74" fill="#000000"/><rect x="815" y="371" width="74" height="74" fill="#000000"/><rect x="889" y="371" width="74" height="74" fill="#000000"/><rect x="1037" y="371" width="74" height="74" fill="#000000"/><rect x="1111" y="371" width="74" height="74" fill="#000000"/><rect x="889" y="445" width="74" height="74" fill="#000000"/><rect x="1037" y="445" width="74" height="74" fill="#000000"/><rect x="963" y="519" width="74" height="74" fill="#000000"/><rect x="1111" y="519" width="74" height="74" fill="#000000"/><rect x="1111" y="593" width="74" height="74" fill="#000000"/><rect x="815" y="667" width="74" height="74" fill="#000000"/><rect x="963" y="667" width="74" height="74" fill="#000000"/><rect x="1111" y="667" width="74" height="74" fill="#000000"/><rect x="815" y="741" width="74" height="74" fill="#000000"/><rect x="889" y="741" width="74" height="74" fill="#000000"/><rect x="1037" y="741" width="74" height="74" fill="#000000"/><rect x="1111" y="741" width="74" height="74" fill="#000000"/><rect x="223" y="815" width="74" height="74" fill="#000000"/><rect x="297" y="815" width="74" height="74" fill="#000000"/><rect x="371" y="815" width="74" height="74" fill="#000000"/><rect x="519" y="815" width="74" height="74" fill="#000000"/><rect x="593" y="815" width="74" height="74" fill="#000000"/><rect x="667" y="815" width="74" height="74" fill="#000000"/><rect x="741" y="815" width="74" height="74" fill="#000000"/><rect x="815" y="815" width="74" height="74" fill="#000000"/><rect x="889" y="815" width="74" height="74" fill="#000000"/><rect x="963" y="815" width="74" height="74" fill="#000000"/><rect x="1037" y="815" width="74" height="74" fill="#000000"/><rect x="1185" y="815" width="74" height="74" fill="#000000"/><rect x="1259" y="815" width="74" height="74" fill="#000000"/><rect x="1555" y="815" width="74" height="74" fill="#000000"/><rect x="223" y="889" width="74" height="74" fill="#000000"/><rect x="445" y="889" width="74" height="74" fill="#000000"/><rect x="519" y="889" width="74" height="74" fill="#000000"/><rect x="741" y="889" width="74" height="74" fill="#000000"/><rect x="815" y="889" width="74" height="74" fill="#000000"/><rect x="889" y="889" width="74" height="74" fill="#000000"/><rect x="963" y="889" width="74" height="74" fill="#000000"/><rect x="1703" y="889" width="74" height="74" fill="#000000"/><rect x="297" y="963" width="74" height="74" fill="#000000"/><rect x="371" y="963" width="74" height="74" fill="#000000"/><rect x="593" y="963" width="74" height="74" fill="#000000"/><rect x="667" y="963" width="74" height="74" fill="#000000"/><rect x="741" y="963" width="74" height="74" fill="#000000"/><rect x="815" y="963" width="74" height="74" fill="#000000"/><rect x="889" y="963" width="74" height="74" fill="#000000"/><rect x="963" y="963" width="74" height="74" fill="#000000"/><rect x="1111" y="963" width="74" height="74" fill="#000000"/><rect x="1407" y="963" width="74" height="74" fill="#000000"/><rect x="1629" y="963" width="74" height="74" fill="#000000"/><rect x="1703" y="963" width="74" height="74" fill="#000000"/><rect x="223" y="1037" width="74" height="74" fill="#000000"/><rect x="371" y="1037" width="74" height="74" fill="#000000"/><rect x="593" y="1037" width="74" height="74" fill="#000000"/><rect x="815" y="1037" width="74" height="74" fill="#000000"/><rect x="963" y="1037" width="74" height="74" fill="#000000"/><rect x="1185" y="1037" width="74" height="74" fill="#000000"/><rect x="1333" y="1037" width="74" height="74" fill="#000000"/><rect x="1407" y="1037" width="74" height="74" fill="#000000"/><rect x="1481" y="1037" width="74" height="74" fill="#000000"/><rect x="1629" y="1037" width="74" height="74" fill="#000000"/><rect x="297" y="1111" width="74" height="74" fill="#000000"/><rect x="371" y="1111" width="74" height="74" fill="#000000"/><rect x="445" y="1111" width="74" height="74" fill="#000000"/><rect x="519" y="1111" width="74" height="74" fill="#000000"/><rect x="667" y="1111" width="74" height="74" fill="#000000"/><rect x="815" y="1111" width="74" height="74" fill="#000000"/><rect x="1111" y="1111" width="74" height="74" fill="#000000"/><rect x="1185" y="1111" width="74" height="74" fill="#000000"/><rect x="1333" y="1111" width="74" height="74" fill="#000000"/><rect x="1407" y="1111" width="74" height="74" fill="#000000"/><rect x="1481" y="1111" width="74" height="74" fill="#000000"/><rect x="1703" y="1111" width="74" height="74" fill="#000000"/><rect x="815" y="1185" width="74" height="74" fill="#000000"/><rect x="963" y="1185" width="74" height="74" fill="#000000"/><rect x="1037" y="1185" width="74" height="74" fill="#000000"/><rect x="1185" y="1185" width="74" height="74" fill="#000000"/><rect x="1407" y="1185" width="74" height="74" fill="#000000"/><rect x="1629" y="1185" width="74" height="74" fill="#000000"/><rect x="815" y="1259" width="74" height="74" fill="#000000"/><rect x="963" y="1259" width="74" height="74" fill="#000000"/><rect x="1037" y="1259" width="74" height="74" fill="#000000"/><rect x="1259" y="1259" width="74" height="74" fill="#000000"/><rect x="1407" y="1259" width="74" height="74" fill="#000000"/><rect x="1629" y="1259" width="74" height="74" fill="#000000"/><rect x="1703" y="1259" width="74" height="74" fill="#000000"/><rect x="815" y="1333" width="74" height="74" fill="#000000"/><rect x="963" y="1333" width="74" height="74" fill="#000000"/><rect x="1037" y="1333" width="74" height="74" fill="#000000"/><rect x="1111" y="1333" width="74" height="74" fill="#000000"/><rect x="1185" y="1333" width="74" height="74" fill="#000000"/><rect x="1333" y="1333" width="74" height="74" fill="#000000"/><rect x="1407" y="1333" width="74" height="74" fill="#000000"/><rect x="1555" y="1333" width="74" height="74" fill="#000000"/><rect x="1629" y="1333" width="74" height="74" fill="#000000"/><rect x="1703" y="1333" width="74" height="74" fill="#000000"/><rect x="815" y="1407" width="74" height="74" fill="#000000"/><rect x="1037" y="1407" width="74" height="74" fill="#000000"/><rect x="1259" y="1407" width="74" height="74" fill="#000000"/><rect x="1333" y="1407" width="74" height="74" fill="#000000"/><rect x="1407" y="1407" width="74" height="74" fill="#000000"/><rect x="1481" y="1407" width="74" height="74" fill="#000000"/><rect x="889" y="1481" width="74" height="74" fill="#000000"/><rect x="1259" y="1481" width="74" height="74" fill="#000000"/><rect x="1333" y="1481" width="74" height="74" fill="#000000"/><rect x="815" y="1555" width="74" height="74" fill="#000000"/><rect x="1111" y="1555" width="74" height="74" fill="#000000"/><rect x="1407" y="1555" width="74" height="74" fill="#000000"/><rect x="1703" y="1555" width="74" height="74" fill="#000000"/><rect x="815" y="1629" width="74" height="74" fill="#000000"/><rect x="889" y="1629" width="74" height="74" fill="#000000"/><rect x="963" y="1629" width="74" height="74" fill="#000000"/><rect x="1259" y="1629" width="74" height="74" fill="#000000"/><rect x="1333" y="1629" width="74" height="74" fill="#000000"/><rect x="1407" y="1629" width="74" height="74" fill="#000000"/><rect x="1555" y="1629" width="74" height="74" fill="#000000"/><rect x="1703" y="1629" width="74" height="74" fill="#000000"/><rect x="815" y="1703" width="74" height="74" fill="#000000"/><rect x="963" y="1703" width="74" height="74" fill="#000000"/><rect x="1111" y="1703" width="74" height="74" fill="#000000"/><rect x="1259" y="1703" width="74" height="74" fill="#000000"/><rect x="1407" y="1703" width="74" height="74" fill="#000000"/><rect x="1629" y="1703" width="74" height="74" fill="#000000"/><rect x="1703" y="1703" width="74" height="74" fill="#000000"/><svg version="1.0" id="Ebene_1" x="223" y="223" width="518" height="518" viewBox="0 0 699.988 699.988" enable-background="new 0 0 699.988 699.988" xml:space="preserve" shape-rendering="auto">
<g>
	<path fill="#000000" d="M578.304,15.493c-30.441-4.132-60.883-7.437-91.322-9.916c-30.439-2.478-60.883-4.13-91.32-4.957   c-0.002,0-0.002,0-0.002,0c-30.441-0.826-60.881-0.826-91.322,0c-30.441,0.826-60.882,2.479-91.323,4.957   c-30.44,2.48-60.882,5.784-91.323,9.916c-30.441,4.13-60.882,9.088-91.324,14.872c-5.784,30.44-10.742,60.882-14.873,91.322   c-4.131,30.441-7.436,60.882-9.916,91.322C3.1,243.45,1.448,273.893,0.62,304.332c-0.827,30.442-0.827,60.884,0,91.324   c0.826,30.442,2.479,60.882,4.958,91.324c2.479,30.442,5.784,60.883,9.916,91.323c4.13,30.441,9.088,60.881,14.872,91.322   c30.441,5.781,60.882,10.739,91.324,14.87c30.44,4.135,60.881,7.438,91.323,9.914c30.441,2.48,60.881,4.132,91.323,4.958   c30.44,0.826,60.881,0.826,91.321,0c0.002,0,0.002,0,0.002,0c30.439-0.826,60.881-2.479,91.32-4.958   c30.439-2.479,60.883-5.78,91.324-9.914c30.438-4.131,60.881-9.089,91.318-14.87c5.783-30.441,10.74-60.881,14.871-91.322   c4.133-30.44,7.439-60.881,9.916-91.323c2.48-30.441,4.131-60.881,4.957-91.324c0.826-30.441,0.826-60.882,0-91.324   c-0.824-30.438-2.479-60.882-4.957-91.321c-2.479-30.441-5.783-60.882-9.916-91.323c-4.131-30.44-9.088-60.882-14.871-91.322   C639.185,24.581,608.744,19.624,578.304,15.493z M596.01,206.636c1.771,31.855,2.949,63.714,3.543,95.569   c0.59,31.858,0.59,63.716,0,95.575c-0.594,31.858-1.771,63.714-3.543,95.573c-1.77,31.857-4.131,63.716-7.08,95.573   c-31.857,2.95-63.719,5.311-95.574,7.082c-31.857,1.771-63.713,2.95-95.568,3.541c-0.002,0-0.002,0-0.002,0   c-31.855,0.59-63.713,0.59-95.571,0c-31.858-0.591-63.716-1.771-95.573-3.541c-31.857-1.771-63.715-4.133-95.572-7.082   c-2.951-31.857-5.312-63.716-7.083-95.573c-1.771-31.858-2.951-63.714-3.542-95.573s-0.59-63.716,0-95.575   c0.59-31.856,1.771-63.715,3.541-95.569c1.771-31.858,4.132-63.716,7.083-95.572c31.857-2.95,63.714-5.313,95.573-7.081   c31.856-1.772,63.714-2.952,95.573-3.542c31.856-0.592,63.711-0.592,95.571,0c0,0,0,0,0.002,0   c31.855,0.59,63.711,1.77,95.568,3.542c31.855,1.771,63.717,4.132,95.574,7.081C591.879,142.922,594.238,174.778,596.01,206.636z"/>
</g>
</svg>
<svg version="1.0" id="Ebene_1" x="223" y="223" width="518" height="518" viewBox="0 0 699.988 699.988" enable-background="new 0 0 699.988 699.988" xml:space="preserve" shape-rendering="auto">
<g>
	<path fill="#000000" d="M395.865,201.374L395.865,201.374c-30.58-1.835-61.162-1.835-91.741,0   c-30.581,1.834-61.162,5.504-91.741,11.009c-5.505,30.58-9.174,61.161-11.009,91.74c-1.835,30.581-1.835,61.162,0,91.742   c1.834,30.581,5.504,61.16,11.009,91.74c30.581,5.504,61.161,9.174,91.741,11.01c30.58,1.834,61.161,1.834,91.741,0l0,0   c30.58-1.836,61.16-5.506,91.74-11.01c5.504-30.58,9.174-61.159,11.01-91.74c1.834-30.58,1.834-61.162,0-91.742   c-1.836-30.58-5.506-61.161-11.01-91.74C457.025,206.878,426.445,203.208,395.865,201.374z"/>
</g>
</svg>
<svg version="1.0" id="Ebene_1" x="1259" y="223" width="518" height="518" viewBox="0 0 699.988 699.988" enable-background="new 0 0 699.988 699.988" xml:space="preserve" shape-rendering="auto">
<g>
	<path fill="#000000" d="M578.304,15.493c-30.441-4.132-60.883-7.437-91.322-9.916c-30.439-2.478-60.883-4.13-91.32-4.957   c-0.002,0-0.002,0-0.002,0c-30.441-0.826-60.881-0.826-91.322,0c-30.441,0.826-60.882,2.479-91.323,4.957   c-30.44,2.48-60.882,5.784-91.323,9.916c-30.441,4.13-60.882,9.088-91.324,14.872c-5.784,30.44-10.742,60.882-14.873,91.322   c-4.131,30.441-7.436,60.882-9.916,91.322C3.1,243.45,1.448,273.893,0.62,304.332c-0.827,30.442-0.827,60.884,0,91.324   c0.826,30.442,2.479,60.882,4.958,91.324c2.479,30.442,5.784,60.883,9.916,91.323c4.13,30.441,9.088,60.881,14.872,91.322   c30.441,5.781,60.882,10.739,91.324,14.87c30.44,4.135,60.881,7.438,91.323,9.914c30.441,2.48,60.881,4.132,91.323,4.958   c30.44,0.826,60.881,0.826,91.321,0c0.002,0,0.002,0,0.002,0c30.439-0.826,60.881-2.479,91.32-4.958   c30.439-2.479,60.883-5.78,91.324-9.914c30.438-4.131,60.881-9.089,91.318-14.87c5.783-30.441,10.74-60.881,14.871-91.322   c4.133-30.44,7.439-60.881,9.916-91.323c2.48-30.441,4.131-60.881,4.957-91.324c0.826-30.441,0.826-60.882,0-91.324   c-0.824-30.438-2.479-60.882-4.957-91.321c-2.479-30.441-5.783-60.882-9.916-91.323c-4.131-30.44-9.088-60.882-14.871-91.322   C639.185,24.581,608.744,19.624,578.304,15.493z M596.01,206.636c1.771,31.855,2.949,63.714,3.543,95.569   c0.59,31.858,0.59,63.716,0,95.575c-0.594,31.858-1.771,63.714-3.543,95.573c-1.77,31.857-4.131,63.716-7.08,95.573   c-31.857,2.95-63.719,5.311-95.574,7.082c-31.857,1.771-63.713,2.95-95.568,3.541c-0.002,0-0.002,0-0.002,0   c-31.855,0.59-63.713,0.59-95.571,0c-31.858-0.591-63.716-1.771-95.573-3.541c-31.857-1.771-63.715-4.133-95.572-7.082   c-2.951-31.857-5.312-63.716-7.083-95.573c-1.771-31.858-2.951-63.714-3.542-95.573s-0.59-63.716,0-95.575   c0.59-31.856,1.771-63.715,3.541-95.569c1.771-31.858,4.132-63.716,7.083-95.572c31.857-2.95,63.714-5.313,95.573-7.081   c31.856-1.772,63.714-2.952,95.573-3.542c31.856-0.592,63.711-0.592,95.571,0c0,0,0,0,0.002,0   c31.855,0.59,63.711,1.77,95.568,3.542c31.855,1.771,63.717,4.132,95.574,7.081C591.879,142.922,594.238,174.778,596.01,206.636z"/>
</g>
</svg>
<svg version="1.0" id="Ebene_1" x="1259" y="223" width="518" height="518" viewBox="0 0 699.988 699.988" enable-background="new 0 0 699.988 699.988" xml:space="preserve" shape-rendering="auto">
<g>
	<path fill="#000000" d="M395.865,201.374L395.865,201.374c-30.58-1.835-61.162-1.835-91.741,0   c-30.581,1.834-61.162,5.504-91.741,11.009c-5.505,30.58-9.174,61.161-11.009,91.74c-1.835,30.581-1.835,61.162,0,91.742   c1.834,30.581,5.504,61.16,11.009,91.74c30.581,5.504,61.161,9.174,91.741,11.01c30.58,1.834,61.161,1.834,91.741,0l0,0   c30.58-1.836,61.16-5.506,91.74-11.01c5.504-30.58,9.174-61.159,11.01-91.74c1.834-30.58,1.834-61.162,0-91.742   c-1.836-30.58-5.506-61.161-11.01-91.74C457.025,206.878,426.445,203.208,395.865,201.374z"/>
</g>
</svg>
<svg version="1.0" id="Ebene_1" x="223" y="1259" width="518" height="518" viewBox="0 0 699.988 699.988" enable-background="new 0 0 699.988 699.988" xml:space="preserve" shape-rendering="auto">
<g>
	<path fill="#000000" d="M578.304,15.493c-30.441-4.132-60.883-7.437-91.322-9.916c-30.439-2.478-60.883-4.13-91.32-4.957   c-0.002,0-0.002,0-0.002,0c-30.441-0.826-60.881-0.826-91.322,0c-30.441,0.826-60.882,2.479-91.323,4.957   c-30.44,2.48-60.882,5.784-91.323,9.916c-30.441,4.13-60.882,9.088-91.324,14.872c-5.784,30.44-10.742,60.882-14.873,91.322   c-4.131,30.441-7.436,60.882-9.916,91.322C3.1,243.45,1.448,273.893,0.62,304.332c-0.827,30.442-0.827,60.884,0,91.324   c0.826,30.442,2.479,60.882,4.958,91.324c2.479,30.442,5.784,60.883,9.916,91.323c4.13,30.441,9.088,60.881,14.872,91.322   c30.441,5.781,60.882,10.739,91.324,14.87c30.44,4.135,60.881,7.438,91.323,9.914c30.441,2.48,60.881,4.132,91.323,4.958   c30.44,0.826,60.881,0.826,91.321,0c0.002,0,0.002,0,0.002,0c30.439-0.826,60.881-2.479,91.32-4.958   c30.439-2.479,60.883-5.78,91.324-9.914c30.438-4.131,60.881-9.089,91.318-14.87c5.783-30.441,10.74-60.881,14.871-91.322   c4.133-30.44,7.439-60.881,9.916-91.323c2.48-30.441,4.131-60.881,4.957-91.324c0.826-30.441,0.826-60.882,0-91.324   c-0.824-30.438-2.479-60.882-4.957-91.321c-2.479-30.441-5.783-60.882-9.916-91.323c-4.131-30.44-9.088-60.882-14.871-91.322   C639.185,24.581,608.744,19.624,578.304,15.493z M596.01,206.636c1.771,31.855,2.949,63.714,3.543,95.569   c0.59,31.858,0.59,63.716,0,95.575c-0.594,31.858-1.771,63.714-3.543,95.573c-1.77,31.857-4.131,63.716-7.08,95.573   c-31.857,2.95-63.719,5.311-95.574,7.082c-31.857,1.771-63.713,2.95-95.568,3.541c-0.002,0-0.002,0-0.002,0   c-31.855,0.59-63.713,0.59-95.571,0c-31.858-0.591-63.716-1.771-95.573-3.541c-31.857-1.771-63.715-4.133-95.572-7.082   c-2.951-31.857-5.312-63.716-7.083-95.573c-1.771-31.858-2.951-63.714-3.542-95.573s-0.59-63.716,0-95.575   c0.59-31.856,1.771-63.715,3.541-95.569c1.771-31.858,4.132-63.716,7.083-95.572c31.857-2.95,63.714-5.313,95.573-7.081   c31.856-1.772,63.714-2.952,95.573-3.542c31.856-0.592,63.711-0.592,95.571,0c0,0,0,0,0.002,0   c31.855,0.59,63.711,1.77,95.568,3.542c31.855,1.771,63.717,4.132,95.574,7.081C591.879,142.922,594.238,174.778,596.01,206.636z"/>
</g>
</svg>
<svg version="1.0" id="Ebene_1" x="223" y="1259" width="518" height="518" viewBox="0 0 699.988 699.988" enable-background="new 0 0 699.988 699.988" xml:space="preserve" shape-rendering="auto">
<g>
	<path fill="#000000" d="M395.865,201.374L395.865,201.374c-30.58-1.835-61.162-1.835-91.741,0   c-30.581,1.834-61.162,5.504-91.741,11.009c-5.505,30.58-9.174,61.161-11.009,91.74c-1.835,30.581-1.835,61.162,0,91.742   c1.834,30.581,5.504,61.16,11.009,91.74c30.581,5.504,61.161,9.174,91.741,11.01c30.58,1.834,61.161,1.834,91.741,0l0,0   c30.58-1.836,61.16-5.506,91.74-11.01c5.504-30.58,9.174-61.159,11.01-91.74c1.834-30.58,1.834-61.162,0-91.742   c-1.836-30.58-5.506-61.161-11.01-91.74C457.025,206.878,426.445,203.208,395.865,201.374z"/>
</g>
</svg>
</svg>

	<path class="frame-color" d="M88,0H5.7C2.5,0,0,2.5,0,5.7V116c0,3.1,2.5,5.7,5.7,5.7H88c3.1,0,5.7-2.5,5.7-5.7V5.7C93.7,2.5,91.1,0,88,0z
	 M89.3,86.6c0,1.6-1.3,2.8-2.8,2.8H7.1c-1.6,0-2.8-1.3-2.8-2.8V7.2c0-1.6,1.3-2.8,2.8-2.8h79.4c1.6,0,2.8,1.3,2.8,2.8V86.6z"/>
	<text id="svg-text-style" x="23" y="111" fill="#ffffff" font-family="Verdana" font-size="11px"><tspan>S</tspan><tspan>c</tspan><tspan>a</tspan><tspan>n</tspan><tspan> </tspan><tspan>m</tspan><tspan>e</tspan></text>
	<svg x="4" y="99" version="1.1" xmlns="http://www.w3.org/2000/svg" width="16" height="16" viewBox="0 0 32 32">
<title>creation-crate-preview</title>
<path fill="#ffffff" d="M9.625 26.688h12.75v-21.375h-12.75zM18.125 3.188h-4.25v1.063h4.25zM21.313 0h-10.625c-2.375 0-4.313 1.938-4.313 4.25v23.5c0 2.313 1.938 4.25 4.313 4.25h10.625c2.375 0 4.313-1.938 4.313-4.25v-23.5c0-2.313-1.938-4.25-4.313-4.25zM23.438 27.75c0 1.188-0.938 2.125-2.125 2.125h-10.625c-1.188 0-2.125-0.938-2.125-2.125v-23.5c0-1.188 0.938-2.125 2.125-2.125h10.625c1.188 0 2.125 0.938 2.125 2.125z"></path>
</svg>

</svg>
